<svg width="95" height="1024" viewBox="0 0 95 1024" fill="none" xmlns="http://www.w3.org/2000/svg">
<g clip-path="url(#clip0_1_6)">
<rect width="95" height="1024" fill="#2D2A2A"/>
<path d="M46.1695 89.0438L38.1673 95.6345V102.748C38.1673 102.932 38.2405 103.109 38.3707 103.239C38.5009 103.369 38.6776 103.442 38.8618 103.442L43.7255 103.43C43.9091 103.429 44.0848 103.355 44.2143 103.225C44.3438 103.095 44.4165 102.919 44.4164 102.735V98.5812C44.4164 98.397 44.4896 98.2203 44.6198 98.0901C44.7501 97.9599 44.9267 97.8867 45.1109 97.8867H47.8887C48.0728 97.8867 48.2495 97.9599 48.3797 98.0901C48.51 98.2203 48.5831 98.397 48.5831 98.5812V102.732C48.5828 102.824 48.6006 102.914 48.6354 102.999C48.6701 103.083 48.7212 103.16 48.7857 103.225C48.8503 103.289 48.9269 103.341 49.0113 103.376C49.0957 103.411 49.1862 103.429 49.2776 103.429L54.1395 103.442C54.3237 103.442 54.5004 103.369 54.6306 103.239C54.7608 103.109 54.834 102.932 54.834 102.748V95.6298L46.8335 89.0438C46.7395 88.968 46.6223 88.9267 46.5015 88.9267C46.3807 88.9267 46.2635 88.968 46.1695 89.0438ZM58.8097 93.5234L55.1812 90.5326V84.5208C55.1812 84.3827 55.1263 84.2502 55.0287 84.1525C54.931 84.0549 54.7985 84 54.6604 84H52.2298C52.0917 84 51.9592 84.0549 51.8615 84.1525C51.7639 84.2502 51.709 84.3827 51.709 84.5208V87.6723L47.8231 84.4753C47.4502 84.1684 46.9823 84.0006 46.4993 84.0006C46.0164 84.0006 45.5485 84.1684 45.1756 84.4753L34.189 93.5234C34.1363 93.567 34.0926 93.6206 34.0606 93.681C34.0286 93.7415 34.0088 93.8077 34.0023 93.8758C33.9959 93.9439 34.0029 94.0126 34.023 94.078C34.0431 94.1434 34.076 94.2042 34.1196 94.2569L35.2263 95.6024C35.2698 95.6553 35.3234 95.6991 35.3838 95.7313C35.4443 95.7635 35.5105 95.7835 35.5786 95.79C35.6468 95.7966 35.7156 95.7897 35.7811 95.7696C35.8466 95.7496 35.9075 95.7168 35.9603 95.6732L46.1695 87.2643C46.2635 87.1885 46.3807 87.1472 46.5015 87.1472C46.6223 87.1472 46.7395 87.1885 46.8335 87.2643L57.0432 95.6732C57.0959 95.7168 57.1567 95.7496 57.2221 95.7697C57.2875 95.7898 57.3562 95.7969 57.4243 95.7904C57.4924 95.784 57.5586 95.7642 57.6191 95.7321C57.6795 95.7001 57.7331 95.6565 57.7767 95.6037L58.8835 94.2582C58.927 94.2052 58.9597 94.1441 58.9796 94.0784C58.9995 94.0128 59.0062 93.9438 58.9993 93.8755C58.9925 93.8072 58.9722 93.741 58.9396 93.6805C58.9071 93.6201 58.8629 93.5667 58.8097 93.5234Z" fill="#F77D0C"/>
<path d="M59.2188 244.086C59.2311 250.758 53.79 256.214 47.1182 256.219C44.2366 256.221 41.5897 255.216 39.5097 253.538C38.9688 253.101 38.9284 252.29 39.4199 251.799L39.97 251.249C40.3904 250.828 41.0615 250.782 41.5272 251.152C43.0597 252.368 44.9991 253.094 47.1094 253.094C52.0754 253.094 56.0938 249.075 56.0938 244.109C56.0938 239.143 52.0747 235.125 47.1094 235.125C44.7259 235.125 42.5611 236.051 40.9537 237.563L43.4319 240.041C43.9241 240.533 43.5755 241.375 42.8795 241.375H35.7812C35.3498 241.375 35 241.025 35 240.594V233.495C35 232.799 35.8415 232.451 36.3337 232.943L38.7444 235.354C40.9184 233.276 43.8648 232 47.1094 232C53.7896 232 59.2064 237.409 59.2188 244.086ZM50.3852 247.933L50.8648 247.317C51.2622 246.806 51.1701 246.069 50.6592 245.672L48.6719 244.126V239.031C48.6719 238.384 48.1472 237.859 47.5 237.859H46.7188C46.0715 237.859 45.5469 238.384 45.5469 239.031V245.655L48.7407 248.139C49.2516 248.536 49.9878 248.444 50.3852 247.933Z" fill="#F67D0C"/>
<path d="M41.9444 444.444C40.8333 444.444 39.7222 443.472 39.1667 443.056C36.3889 441.111 35.5556 440.417 35 440V445.833C35 446.6 35.622 447.222 36.3889 447.222H47.5C48.2669 447.222 48.8889 446.6 48.8889 445.833V440C48.3333 440.417 47.5 441.111 44.7222 443.056C44.1667 443.472 43.0556 444.444 41.9444 444.444ZM47.5 436.111H36.3889C35.622 436.111 35 436.733 35 437.5V438.194C36.1111 439.028 35.9722 439.028 40 441.944C40.4167 442.222 41.25 443.056 41.9444 443.056C42.6389 443.056 43.4722 442.222 43.8889 442.083C47.9167 439.167 47.7778 439.167 48.8889 438.333V437.5C48.8889 436.733 48.2669 436.111 47.5 436.111ZM58.6111 431.944H44.7222C43.9553 431.944 43.3333 432.566 43.3333 433.333V434.722H47.5C48.9414 434.722 50.1298 435.826 50.2652 437.232L50.2778 437.222V443.056H58.6111C59.378 443.056 60 442.434 60 441.667V433.333C60 432.566 59.378 431.944 58.6111 431.944ZM57.2222 437.5H54.4444V434.722H57.2222V437.5ZM41.9444 433.333C41.9444 431.802 43.1905 430.556 44.7222 430.556H54.4444V426.389C54.4444 425.622 53.8225 425 53.0556 425H39.1667C38.3997 425 37.7778 425.622 37.7778 426.389V434.722H41.9444V433.333Z" fill="#F67D0C"/>
<path d="M57.6935 628.023L55.5402 626.982C55.7576 626 55.7576 624.992 55.5402 624.01L57.6935 622.968C57.9411 622.85 58.0523 622.604 57.9715 622.375C57.4104 620.868 56.4551 619.505 55.2066 618.37C55.0145 618.197 54.7012 618.154 54.4585 618.273L52.3053 619.314C51.4006 618.662 50.3593 618.158 49.2322 617.828V615.749C49.2322 615.512 49.035 615.305 48.757 615.254C46.902 614.907 45.0015 614.924 43.2375 615.254C42.9595 615.305 42.7624 615.512 42.7624 615.749V617.832C41.6402 618.167 40.599 618.671 39.6892 619.319L37.541 618.277C37.2933 618.158 36.985 618.197 36.7929 618.374C35.5445 619.505 34.5892 620.868 34.0281 622.38C33.9422 622.608 34.0584 622.854 34.3061 622.972L36.4593 624.014C36.242 624.996 36.242 626.004 36.4593 626.986L34.3061 628.028C34.0584 628.146 33.9472 628.392 34.0281 628.62C34.5892 630.128 35.5445 631.491 36.7929 632.626C36.985 632.799 37.2984 632.842 37.541 632.723L39.6942 631.681C40.599 632.333 41.6402 632.837 42.7674 633.168V635.251C42.7674 635.488 42.9645 635.695 43.2425 635.746C45.0975 636.093 46.9981 636.076 48.7621 635.746C49.0401 635.695 49.2372 635.488 49.2372 635.251V633.168C50.3593 632.833 51.4006 632.329 52.3104 631.681L54.4636 632.723C54.7113 632.842 55.0196 632.803 55.2117 632.626C56.4601 631.495 57.4155 630.132 57.9765 628.62C58.0523 628.387 57.9411 628.142 57.6935 628.023ZM45.9973 628.883C43.7682 628.883 41.9536 627.363 41.9536 625.496C41.9536 623.629 43.7682 622.109 45.9973 622.109C48.2263 622.109 50.0409 623.629 50.0409 625.496C50.0409 627.363 48.2263 628.883 45.9973 628.883Z" fill="#F67D0C"/>
<path d="M45.5 826.22C47.471 826.22 49.0697 824.977 49.0697 823.442H41.9303C41.9303 824.977 43.529 826.22 45.5 826.22ZM57.5195 819.723C56.4414 818.822 54.4241 817.467 54.4241 813.027C54.4241 809.655 51.3839 806.955 47.2846 806.293V805.389C47.2846 804.622 46.4855 804 45.5 804C44.5145 804 43.7154 804.622 43.7154 805.389V806.293C39.6161 806.955 36.5759 809.655 36.5759 813.027C36.5759 817.467 34.5586 818.822 33.4805 819.723C33.1457 820.003 32.9972 820.337 33 820.665C33.0062 821.377 33.7244 822.054 34.7913 822.054H56.2087C57.2756 822.054 57.9944 821.377 58 820.665C58.0028 820.337 57.8543 820.002 57.5195 819.723Z" fill="#F67D0C"/>
<path d="M57.0807 946.442H53.6088V931.924C53.6088 930.74 52.6744 929.777 51.5257 929.777H46.665V932.555H50.8313V949.22H57.0807C57.4643 949.22 57.7751 948.909 57.7751 948.526V947.137C57.7751 946.753 57.4643 946.442 57.0807 946.442ZM43.5508 927.044L35.2182 929.202C34.5998 929.363 34.1663 929.938 34.1663 930.599V946.442H30.6944C30.3107 946.442 30 946.753 30 947.137V948.526C30 948.909 30.3107 949.22 30.6944 949.22H45.2763V928.44C45.2763 927.503 44.4274 926.816 43.5508 927.044ZM41.4572 939.499C40.8822 939.499 40.4156 938.877 40.4156 938.11C40.4156 937.343 40.8822 936.721 41.4572 936.721C42.0322 936.721 42.4988 937.343 42.4988 938.11C42.4988 938.877 42.0322 939.499 41.4572 939.499Z" fill="#F67D0C"/>
<line x1="87.0011" y1="178.5" x2="1439" y2="181.493" stroke="black"/>
</g>
<defs>
<clipPath id="clip0_1_6">
<rect width="95" height="1024" fill="white"/>
</clipPath>
</defs>
</svg>
