<svg width="12" height="14" viewBox="0 0 12 14" fill="none" xmlns="http://www.w3.org/2000/svg">
<path d="M11.1429 5.13522H7.28571V0.933677C7.28571 0.418112 6.90188 0 6.42857 0H5.57143C5.09813 0 4.71429 0.418112 4.71429 0.933677V5.13522H0.857143C0.383839 5.13522 0 5.55333 0 6.0689V7.00257C0 7.51814 0.383839 7.93625 0.857143 7.93625H4.71429V12.1378C4.71429 12.6534 5.09813 13.0715 5.57143 13.0715H6.42857C6.90188 13.0715 7.28571 12.6534 7.28571 12.1378V7.93625H11.1429C11.6162 7.93625 12 7.51814 12 7.00257V6.0689C12 5.55333 11.6162 5.13522 11.1429 5.13522Z" fill="#FFFBFB"/>
</svg>
